<svg xmlns="http://www.w3.org/2000/svg" viewBox="0 0 512.84 485.54"><g id="Layer_2" data-name="Layer 2"><g id="Layer_1-2" data-name="Layer 1"><path d="M242.83,485.53q-67.64,0-135.27,0A107.45,107.45,0,0,1,0,377.89Q0,242.64,0,107.38A107.41,107.41,0,0,1,107.18,0q67-.11,134,0c16.65,0,28.68,11.35,28.68,27,0,15.46-12.22,27.18-28.71,27.21-44,.07-88.08,0-132.11.05C81.09,54.34,60,72,54.87,99.35a59.56,59.56,0,0,0-.59,10.7q0,132.72,0,265.45c0,33.11,22.8,55.77,56,55.79q132.44.06,264.87,0c33.53,0,56.13-22.7,56.17-56.31.05-42.34-.08-84.69.06-127,.06-19.9,18.34-33.13,36.34-26.62a26.51,26.51,0,0,1,17.82,25.07c.05,45.51.32,91-.09,136.52-.44,48.52-41.68,94.73-89.79,101.21a153.84,153.84,0,0,1-20.12,1.35Q309.21,485.64,242.83,485.53Z"/><path d="M244,259.4c1.57-2.33,2.69-4.71,4.43-6.46q108-108.3,216.2-216.48c11.86-11.86,27-13.06,38.48-3.24a26.89,26.89,0,0,1,4.22,36.92,49.89,49.89,0,0,1-5,5.66Q383.47,194.71,264.56,313.6c-5.67,5.67-11.88,9.89-20.29,10.22-8.07.31-15-2.17-20.61-7.8-36.1-36-72.27-72-108.13-108.2-11.14-11.26-10.52-27.89.43-38.51s27.39-10.37,38.56.75c27.79,27.64,55.39,55.46,83.08,83.2C239.21,254.87,240.89,256.4,244,259.4Z"/></g></g></svg>