<svg xmlns="http://www.w3.org/2000/svg" viewBox="0 0 691.57 518.57"><defs><style>.cls-1{fill:#fff;}</style></defs><g id="Layer_2" data-name="Layer 2"><g id="Layer_1-2" data-name="Layer 1"><path class="cls-1" d="M691.57,464.56c-1.79,5.26-3.09,10.76-5.45,15.75-11.84,25-31.94,37.9-59.38,38.06-63.68.36-127.36.12-191,.12q-98.55,0-197.1,0c-29.91-.05-55.4-19.19-62.85-46.8-11.16-41.27,18.9-80.27,62.61-81.06,13.27-.24,26.55,0,39.83,0H621.1c37.64,0,59.58,16.63,69.62,52.75.11.38.56.67.85,1Z"/><path class="cls-1" d="M691.57,74.19c-1.63,4.83-2.86,9.85-5,14.47-12.15,26.51-33.37,39.19-62.13,39.23q-131,.21-261.9,0c-40.95,0-81.9.12-122.85,0-32-.11-56.88-19.27-64.35-49.13C165.72,40.25,194.71,1.71,234.57.09,237.49,0,240.42,0,243.34,0h378c37.73,0,59.5,16.6,69.42,52.89.1.39.53.69.8,1Z"/><path class="cls-1" d="M691.57,270.05c-.81,2.25-1.76,4.46-2.43,6.75-7.91,27-31.16,45.54-59.08,45.88-39.15.47-78.31.22-117.46.22-90.68,0-181.37-.38-272,.21-34.2.22-59.32-22.68-65.67-50.15-8.7-37.64,20.39-76.55,58.93-77.08,46.12-.64,92.26-.28,138.39-.29q125.9,0,251.79,0c35,0,57.51,17.53,66.43,51.32.15.57.76,1,1.15,1.53Z"/><path class="cls-1" d="M127.33,454.49A63.67,63.67,0,1,1,0,455c-.07-35.37,28.29-64.17,63.4-64.38S127.29,419.19,127.33,454.49Z"/><path class="cls-1" d="M127.32,63.66a64,64,0,0,1-63.6,64.23C29.36,128,.21,99.33,0,65.16-.21,29.09,27.84.19,63.24,0A63.85,63.85,0,0,1,127.32,63.66Z"/><path class="cls-1" d="M127.32,259.55a63.34,63.34,0,0,1-64.16,63.3C27.48,322.62-.23,294.14,0,257.91c.22-34.61,29.25-62.65,64.46-62.27A63.33,63.33,0,0,1,127.32,259.55Z"/></g></g></svg>