<svg xmlns="http://www.w3.org/2000/svg" viewBox="0 0 872.91 872.91"><defs><style>.cls-1{fill:#82368c;}</style></defs><g id="Layer_2" data-name="Layer 2"><g id="Layer_1-2" data-name="Layer 1"><path class="cls-1" d="M510.53,401.91c-10.69-6.92-11.84-16-13-26.89-3.18-29.94-25.3-49.65-57.75-52.57-28.18-2.53-55.21,15.32-63,42.36-2.19,7.61-2.13,15.85-3.43,23.75-.37,2.2-1.37,5.16-3,6.16C356.09,403.3,349.93,416,350,432.29c.06,25.89-.05,51.77,0,77.66.08,25,16.74,41.67,41.75,41.79,14.8.07,29.59,0,44.38,0,15.23,0,30.46.13,45.68,0,23.44-.25,40.31-17,40.49-40.4.2-27.19.13-54.38,0-81.58C522.24,418.89,519.5,407.73,510.53,401.91ZM444.31,510c-2.83,0-5.65,0-8.47,0-19.82,1.59-22.45-5.83-18-21.46,1.53-5.39,2.05-11.06,3.32-16.54,1.48-6.35,2.63-12.22-.88-18.72-3.28-6.07-.09-14.09,5.6-18.5a17.82,17.82,0,0,1,19-1.1c6.07,3.65,10.84,11.79,7.74,17.7-6.07,11.55-.2,21.9,1,32.72.45,4.07,1.65,8.06,2.29,12.11C457.29,505.12,453.3,509.82,444.31,510Zm38.85-120.4H389.35c-1.16-17.22,3.51-32.09,17.56-42.47,16.31-12.05,34.38-13.17,52.25-3.95C477.44,352.55,483.76,369,483.16,389.55Z"/><path class="cls-1" d="M436.46,0C195.41,0,0,195.41,0,436.46S195.41,872.91,436.46,872.91,872.91,677.5,872.91,436.46,677.5,0,436.46,0ZM124,379c-7.41,37.94-7.14,76-.38,114,1,5.75-1.59,10.21-6.55,10.81-6.14.74-8.92-3.14-9.35-8.43-1.84-22.27-5.29-44.61-4.68-66.84C105.6,335.78,141.12,257,208.56,193.21,258.73,145.74,318.67,117,386.94,107c77.43-11.33,150.38,2.88,218.14,42.38,4.52,2.64,7.37,2.92,11.78-.65,14.84-12,36.07-12.85,52.52-2.86,16,9.72,25.31,29.28,22.26,46.71-3.6,20.54-17.92,35.56-37.5,39.36a46.77,46.77,0,0,1-53.69-60.42c.52-1.63,1-3.27,1.69-5.45-36.38-22-74.89-36.48-116.39-42.76-79.5-12-153.71,2.91-221.14,46.56C188.2,219.32,141.46,289.6,124,379Zm555.14-62.69C677.6,383.06,667,448.61,637.62,510.19c-31.28,65.59-78.82,116.73-139.27,156.17C482,677,464.67,686.16,447.69,695.83c-7.55,4.29-15.3,4-23,.07-49-25.09-93.37-56.26-130.56-97.23-44.23-48.73-72.59-105.6-87.54-169.38-10.11-43.17-13.8-87-13.34-131.31.14-13.3,9.29-23.85,22.53-24,75.07-.76,139.08-31.67,199.76-72.14a65.87,65.87,0,0,1,18.44-8.9c7.4-2.06,13.8,2.21,19.77,6.47a450.33,450.33,0,0,0,92.08,51.08c34.84,14.19,70.73,23.56,108.74,23.37,14.91-.08,24.55,10.3,24.6,25.34C679.15,304.66,679.14,310.1,679.14,316.35Zm88.72,154.13Q754.53,594.79,663.59,680.59c-47.89,45.13-104.68,73.64-169.46,84.68C402.4,780.9,318,761.78,242,707.78c-5.77-4.09-9.41-4.63-15.64-.87-17.84,10.77-41.43,8.86-57.49-4.13-17.5-14.16-24.17-32.58-18.87-54.56a51.13,51.13,0,0,1,43.12-39.12c21.13-3,38.3,4.37,50.59,21.44s13,35.41,4.25,54.31c-.81,1.73-1.79,3.4-3.41,6.46,15,9.16,29.32,19,44.56,27.05,52.1,27.65,108,39,166.68,35.63,139.7-8,259.21-110,290-247a317.25,317.25,0,0,0,.26-139.6c-.28-1.27-.4-2.58-.63-3.86-.92-5,.8-8.86,5.9-10,5.51-1.17,8.7,2.07,9.73,7.21,1.95,9.79,4,19.57,5.3,29.45,1.73,13.76,2.73,27.62,4,41.44v11.75C769.57,452.41,768.83,461.46,767.86,470.48Z"/></g></g></svg>