<svg xmlns="http://www.w3.org/2000/svg" viewBox="0 0 872.91 872.91"><defs><style>.cls-1{fill:#1d1d1b;}</style></defs><g id="Layer_2" data-name="Layer 2"><g id="Layer_1-2" data-name="Layer 1"><path class="cls-1" d="M436.46,0C195.41,0,0,195.41,0,436.46S195.41,872.91,436.46,872.91,872.91,677.5,872.91,436.46,677.5,0,436.46,0ZM124,379c-7.41,37.94-7.14,76-.38,114,1,5.75-1.59,10.21-6.55,10.81-6.14.74-8.92-3.14-9.35-8.43-1.84-22.27-5.29-44.61-4.68-66.84C105.6,335.78,141.12,257,208.56,193.21,258.73,145.74,318.67,117,386.94,107c77.43-11.33,150.38,2.88,218.14,42.38,4.52,2.64,7.37,2.92,11.78-.65,14.84-12,36.07-12.85,52.52-2.86,16,9.72,25.31,29.28,22.26,46.71-3.6,20.54-17.92,35.56-37.5,39.36a46.77,46.77,0,0,1-53.69-60.42c.52-1.63,1-3.27,1.69-5.45-36.38-22-74.89-36.48-116.39-42.76-79.5-12-153.71,2.91-221.14,46.56C188.2,219.32,141.46,289.6,124,379Zm555.14-62.69C677.6,383.06,667,448.61,637.62,510.19c-31.28,65.59-78.82,116.73-139.27,156.17C482,677,464.67,686.16,447.69,695.83c-7.55,4.29-15.3,4-23,.07-49-25.09-93.37-56.26-130.56-97.23-44.23-48.73-72.59-105.6-87.54-169.38-10.11-43.17-13.8-87-13.34-131.31.14-13.3,9.29-23.85,22.53-24,75.07-.76,139.08-31.67,199.76-72.14a65.87,65.87,0,0,1,18.44-8.9c7.4-2.06,13.8,2.21,19.77,6.47a450.33,450.33,0,0,0,92.08,51.08c34.84,14.19,70.73,23.56,108.74,23.37,14.91-.08,24.55,10.3,24.6,25.34C679.15,304.66,679.14,310.1,679.14,316.35Zm88.72,154.13Q754.53,594.79,663.59,680.59c-47.89,45.13-104.68,73.64-169.46,84.68C402.4,780.9,318,761.78,242,707.78c-5.77-4.09-9.41-4.63-15.64-.87-17.84,10.77-41.43,8.86-57.49-4.13-17.5-14.16-24.17-32.58-18.87-54.56a51.13,51.13,0,0,1,43.12-39.12c21.13-3,38.3,4.37,50.59,21.44s13,35.41,4.25,54.31c-.81,1.73-1.79,3.4-3.41,6.46,15,9.16,29.32,19,44.56,27.05,52.1,27.65,108,39,166.68,35.63,139.7-8,259.21-110,290-247a317.25,317.25,0,0,0,.26-139.6c-.28-1.27-.4-2.58-.63-3.86-.92-5,.8-8.86,5.9-10,5.51-1.17,8.7,2.07,9.73,7.21,1.95,9.79,4,19.57,5.3,29.45,1.73,13.76,2.73,27.62,4,41.44v11.75C769.57,452.41,768.83,461.46,767.86,470.48Z"/><path class="cls-1" d="M579.36,344.71c-6.05-3.21-12.11-2-17.74,3.66q-81.9,81.88-163.79,163.81a18.41,18.41,0,0,0-2,3c-1.34-1.5-2-2.28-2.67-3Q363,482,332.8,451.78a32.41,32.41,0,0,0-2.79-2.59,13.64,13.64,0,0,0-12.83-2.43c-5.32,1.51-8,5.54-9.86,10.38v6c1.75,2.69,3.09,5.79,5.31,8q35.73,36,71.71,71.83c7.25,7.25,15.14,7.22,22.42-.07q87.32-87.28,174.6-174.61a26.13,26.13,0,0,0,2.71-3.06A13.88,13.88,0,0,0,579.36,344.71Z"/></g></g></svg>