<svg xmlns="http://www.w3.org/2000/svg" viewBox="0 0 872.91 872.91"><defs><style>.cls-1{fill:#1d1d1b;}</style></defs><g id="Layer_2" data-name="Layer 2"><g id="Layer_1-2" data-name="Layer 1"><path class="cls-1" d="M278.86,666.74H594.29V206.52H278.86Zm115-78.4H320.49V459.51h73.35ZM320.36,429V337.44H552.29V429ZM552.85,587.91H424.57V459.69H552.85Zm-250.37-357H570.24v58.38H302.48Z"/><path class="cls-1" d="M401.11,180.24a504.45,504.45,0,0,0,60.49.07c4.06-.22,7.77-7,11.64-10.73-4-3.53-7.63-9.41-12.07-10.1-9.85-1.55-20.11-.48-30.2-.49-9.69,0-19.38.1-29.06,0-6.62-.1-13.79,1.15-12.25,9C390.6,172.8,396.86,180,401.11,180.24Z"/><path class="cls-1" d="M434.47,685.88a16.38,16.38,0,0,0-17.28,16.2c-.36,10,7.19,17.95,17,17.85,9.06-.09,17-7.93,17.06-16.94A17.28,17.28,0,0,0,434.47,685.88Z"/><path class="cls-1" d="M436.46,0C195.41,0,0,195.41,0,436.46S195.41,872.91,436.46,872.91,872.91,677.5,872.91,436.46,677.5,0,436.46,0ZM633.28,697.92c0,30.21-16.58,47.26-47.19,47.68-32.76.45-65.53.12-98.3.12q-98.91,0-197.81.06c-17.66,0-33.45-4.45-42.57-20.39a55.58,55.58,0,0,1-7-26.18c-.5-87.36-.31-174.72-.31-262.09s0-174.72,0-262.09c0-29.53,16.9-47,46.29-47q148.66-.21,297.33,0c30.38,0,49.53,19.73,49.54,50.57Q633.34,438.26,633.28,697.92Z"/></g></g></svg>